<?xml version="1.0" standalone="no"?>
<!DOCTYPE svg PUBLIC "-//W3C//DTD SVG 20010904//EN"
 "http://www.w3.org/TR/2001/REC-SVG-20010904/DTD/svg10.dtd">
<svg version="1.0" xmlns="http://www.w3.org/2000/svg"
 width="1080.000000pt" height="1080.000000pt" viewBox="0 0 1080.000000 1080.000000"
 preserveAspectRatio="xMidYMid meet">
<metadata>
Created by potrace 1.14, written by Peter Selinger 2001-2017
</metadata>
<g transform="translate(0.000000,1080.000000) scale(0.100000,-0.100000)"
fill="#000000" stroke="none">
<path d="M5626 10020 c-203 -23 -408 -77 -698 -184 -196 -72 -212 -76 -453
-116 -1396 -231 -1823 -454 -2149 -1125 -40 -82 -79 -166 -86 -185 -8 -19
-206 -323 -441 -675 -234 -352 -432 -650 -438 -663 -29 -56 -45 -908 -22
-1137 42 -408 157 -641 425 -862 44 -37 84 -72 88 -78 18 -25 150 -371 182
-477 73 -242 91 -371 106 -768 6 -151 15 -315 21 -365 29 -242 100 -387 249
-508 53 -43 203 -127 227 -127 6 0 14 -4 17 -8 3 -5 -2 -125 -9 -268 -24 -434
-21 -467 48 -516 17 -12 286 -113 599 -224 l568 -202 76 -68 c206 -186 377
-312 602 -447 376 -224 621 -273 913 -181 91 28 287 118 390 179 35 21 413
205 839 410 630 302 782 379 814 411 41 41 117 195 301 609 123 277 177 424
219 597 39 156 56 274 56 383 l0 70 80 68 c151 128 255 271 305 417 44 127 58
244 59 472 l1 206 92 94 c172 173 274 323 308 453 31 119 13 295 -43 425 l-19
45 133 410 133 410 -5 130 c-25 616 -75 912 -204 1192 -153 331 -454 609
-1010 931 l-155 90 -272 377 c-149 207 -282 388 -295 402 -27 30 -67 49 -338
158 -301 121 -526 191 -745 231 -105 19 -355 26 -469 14z m359 -2972 c16 -18
86 -92 155 -164 142 -147 289 -318 375 -439 100 -140 169 -300 214 -495 12
-52 24 -102 27 -111 4 -14 -19 -17 -193 -22 -252 -9 -521 -27 -551 -38 -12 -5
-47 -47 -79 -96 -31 -49 -61 -92 -66 -98 -16 -16 51 102 104 182 56 87 37 81
-53 -16 -87 -94 -151 -220 -171 -337 -7 -38 23 -91 56 -99 14 -4 143 1 288 10
145 8 386 18 535 22 l270 6 18 -63 c10 -34 51 -173 92 -308 41 -134 73 -246
71 -248 -2 -2 -34 16 -71 40 -166 109 -384 161 -566 136 -210 -29 -369 -135
-540 -360 -63 -82 -150 -224 -150 -244 0 -5 64 53 143 130 223 219 330 290
483 319 98 19 130 19 242 -5 192 -39 355 -146 418 -275 27 -55 29 -69 29 -170
0 -102 -2 -115 -31 -175 -17 -36 -46 -82 -63 -103 -58 -65 -201 -116 -330
-117 l-34 0 49 32 c173 114 247 271 210 449 -39 182 -157 298 -339 329 -85 15
-163 3 -259 -41 -56 -26 -68 -36 -64 -51 4 -16 2 -17 -11 -7 -8 8 -17 9 -21 3
-95 -130 -122 -199 -122 -314 0 -133 46 -248 131 -324 50 -45 51 -46 23 -46
-28 0 -203 14 -314 25 -73 8 -55 -6 50 -38 388 -117 734 -171 902 -139 l46 9
9 -116 c4 -64 8 -258 8 -431 -1 -247 -5 -341 -19 -435 -60 -414 -217 -727
-596 -1190 -83 -103 -91 -109 -245 -212 -283 -188 -485 -299 -648 -356 -84
-29 -103 -31 -212 -31 -103 0 -131 4 -201 27 -143 48 -375 177 -578 321 -173
124 -287 226 -567 507 l-286 287 -92 169 -93 168 -100 339 c-54 187 -106 353
-114 369 -21 40 -77 62 -123 48 -31 -9 -41 -7 -95 22 -69 37 -205 162 -272
250 -55 72 -142 249 -178 360 -60 184 -76 370 -42 497 19 72 113 269 150 314
l24 29 35 -22 c20 -12 84 -73 142 -136 119 -128 144 -141 209 -110 64 30 64
30 69 460 6 532 11 560 187 925 60 124 123 261 140 305 46 117 122 272 165
335 173 255 550 463 960 529 219 35 286 36 505 7 455 -61 663 -53 843 29 69
31 79 31 112 -7z m748 -2560 c14 -24 30 -61 37 -82 12 -39 12 -40 -20 -69 -28
-25 -39 -29 -76 -24 -100 11 -127 145 -40 198 49 30 72 25 99 -23z"/>
<path d="M3785 5904 c-227 -35 -381 -104 -479 -216 -89 -102 -133 -237 -143
-441 -6 -124 -5 -128 17 -152 14 -15 35 -25 50 -25 30 0 50 19 108 106 111
166 217 266 314 298 64 21 200 21 309 0 46 -8 183 -42 304 -74 300 -81 470
-112 620 -113 108 -2 124 1 164 21 32 18 47 34 59 63 10 27 18 36 23 27 30
-48 11 116 -21 190 -21 46 -99 149 -145 192 l-28 25 32 -55 c18 -30 48 -86 67
-125 32 -64 33 -67 8 -35 -38 48 -124 130 -137 130 -6 0 -2 -10 9 -22 63 -72
55 -75 -21 -9 l-56 49 -247 61 c-136 33 -303 69 -372 81 -119 20 -370 34 -435
24z m1325 -439 c0 -5 -5 -3 -10 5 -5 8 -10 20 -10 25 0 6 5 3 10 -5 5 -8 10
-19 10 -25z"/>
<path d="M5841 5724 c-67 -60 -111 -149 -117 -235 -4 -55 -3 -60 7 -39 7 14
33 71 60 127 26 56 61 122 79 147 17 25 29 46 27 46 -3 0 -28 -21 -56 -46z"/>
<path d="M3965 4946 c-217 -43 -424 -171 -512 -318 -43 -71 -63 -154 -64 -259
0 -97 18 -173 63 -263 l30 -60 -46 38 c-54 44 -58 37 -14 -29 84 -126 316
-234 504 -235 128 0 368 39 589 96 139 36 297 85 292 91 -5 4 -353 -22 -432
-33 l-40 -6 50 35 c77 53 160 148 183 210 65 173 6 386 -136 488 -126 90 -290
104 -434 36 -48 -22 -78 -42 -78 -51 0 -9 -6 -13 -13 -10 -19 7 -94 -103 -119
-174 -16 -47 -19 -75 -16 -157 8 -169 68 -279 198 -357 l65 -39 -70 6 c-154
14 -254 62 -316 151 -66 96 -89 199 -69 311 15 88 51 152 121 217 143 132 396
203 580 162 156 -34 253 -99 472 -314 81 -80 147 -142 147 -138 0 21 -78 152
-141 236 -149 201 -278 301 -449 352 -85 25 -252 32 -345 14z m487 -386 c57
-44 61 -129 8 -174 -83 -69 -190 -19 -190 90 0 28 8 44 34 70 29 29 41 34 79
34 29 0 53 -7 69 -20z"/>
<path d="M2562 4433 c-49 -126 -65 -194 -66 -270 0 -66 -2 -73 -21 -73 -18 -1
-17 -2 5 -14 16 -9 32 -33 44 -68 22 -62 66 -133 147 -238 103 -133 104 -133
244 -189 72 -28 132 -51 135 -51 16 0 -4 231 -31 356 -32 150 -81 253 -192
403 -73 100 -198 221 -228 221 -4 0 -21 -35 -37 -77z"/>
<path d="M5483 3601 c5 -105 12 -146 37 -224 30 -95 30 -98 16 -154 -14 -55
-14 -57 2 -36 9 11 46 36 82 53 36 18 66 34 68 35 2 2 -12 54 -32 117 -35 113
-148 338 -169 338 -7 0 -8 -42 -4 -129z"/>
<path d="M6375 2692 c-23 -21 -340 -137 -442 -163 -125 -32 -230 -43 -538 -59
-519 -27 -755 -47 -790 -68 -26 -16 95 -23 500 -28 411 -6 449 -5 577 14 210
32 370 91 571 210 72 43 150 101 137 102 -4 0 -10 -4 -15 -8z"/>
<path d="M5612 2180 c-132 -62 -182 -73 -375 -78 -184 -4 -272 5 -332 35 -30
16 -30 16 -12 -4 25 -28 231 -131 297 -148 175 -46 354 22 465 176 19 27 32
49 27 49 -4 0 -35 -13 -70 -30z"/>
</g>
</svg>
