<svg xmlns="http://www.w3.org/2000/svg" width="512" height="512" viewBox="0 0 512 512" style="" data-bbox="-51.83533928479051 -63.40048187887265 615.670678569581 638.8009637577452"><path d="M365 42.7H125.9L6.3 249.9L125.9 457H365l119.6-207.1L365 42.7z M358.9 446.3H132L18.6 249.9L132 53.4h226.8
	l113.4 196.5L358.9 446.3z" transform="matrix(0.5220011472702026, 0.8834118247032166, -0.8834118247032166, 0.5220011472702026, 348.59521484375, -91.25543212890625)" fill="rgba(163, 235, 255, 1)"></path><path d="M365 42.7H125.9L6.3 249.9L125.9 457H365l119.6-207.1L365 42.7z M358.9 446.3H132L18.6 249.9L132 53.4h226.8
	l113.4 196.5L358.9 446.3z" transform="matrix(0.59478759765625, 0.3391682207584381, -0.3391682207584381, 0.59478759765625, 194.7505645751953, 24.143468856811523)" fill="rgba(163, 235, 255, 1)"></path><path d="M365 42.7H125.9L6.3 249.9L125.9 457H365l119.6-207.1L365 42.7z M358.9 446.3H132L18.6 249.9L132 53.4h226.8
	l113.4 196.5L358.9 446.3z" transform="matrix(0.195123553276062, 0.33052945137023926, -0.33052945137023926, 0.195123553276062, 290.689697265625, 126.11991882324219)" fill="rgba(163, 235, 255, 1)"></path><path transform="matrix(0.07536347210407257, 0, 0, 0.07536347210407257, 237.10638427734375, 237.10638427734375)" fill="rgba(97, 218, 251, 1)" data-type="circle" data-cx="250.7" data-cy="250.7" data-r="250.7" d="M250.7,250.7m-250.7,0a250.7,250.7 0 1, 0 501.4,0a250.7,250.7 0 1, 0 -501.4,0"></path></svg>